<svg xmlns="http://www.w3.org/2000/svg" width="124" height="20" viewBox="0 0 124 20">
    <g fill="#FFF" fill-rule="nonzero">
        <path d="M8.963 19.254V12.06c0-1.77-.94-3.375-2.766-3.375S3.32 10.291 3.32 12.061v7.193H0V5.809h3.098l.222 1.66c.719-1.383 2.268-1.881 3.54-1.881 1.605 0 3.21.664 3.984 2.49 1.217-1.937 2.766-2.435 4.481-2.435 3.818 0 5.7 2.324 5.7 6.363v7.248h-3.32v-7.248c0-1.77-.72-3.264-2.546-3.264-1.825 0-2.932 1.549-2.932 3.32v7.192H8.963zM26.833 2.047c0 2.6-3.928 2.6-3.928 0s3.928-2.6 3.928 0zm-3.596 3.707v13.5h3.32v-13.5h-3.32zM38.065 9.406c-.94-.886-2.047-1.218-3.32-1.218-1.604 0-2.434.498-2.434 1.328 0 .885.774 1.383 2.49 1.494 2.544.166 5.753.72 5.753 4.315 0 2.38-1.936 4.427-5.754 4.427-2.102 0-4.26-.332-6.196-2.38l1.66-2.379c.94 1.052 3.153 1.882 4.647 1.882 1.273 0 2.434-.609 2.434-1.605 0-.94-.774-1.328-2.655-1.438-2.545-.166-5.588-1.107-5.588-4.15 0-3.098 3.209-4.205 5.698-4.205 2.103 0 3.707.388 5.256 1.77l-1.991 2.159zM47.083 2.047v3.818h3.707v2.877h-3.762v5.809c0 1.272.719 1.881 1.77 1.881.498 0 1.107-.166 1.604-.387l.941 2.821c-.94.388-1.77.554-2.766.554-2.933.11-4.814-1.55-4.814-4.924V8.742h-2.49V5.865h2.49V2.379l3.32-.332zM55.271 13.721c.221 1.66 1.66 2.877 3.984 2.877 1.217 0 2.821-.443 3.596-1.273l2.102 2.103c-1.438 1.494-3.762 2.158-5.754 2.158-4.647 0-7.413-2.877-7.413-7.193 0-4.094 2.766-7.026 7.137-7.026 4.481 0 7.303 2.766 6.805 8.299H55.27v.055zm7.303-2.766c-.221-1.77-1.604-2.6-3.485-2.6-1.826 0-3.265.885-3.762 2.6h7.247zM70.597 5.81l.22 1.548c1.052-1.66 2.435-1.936 3.818-1.936 1.384 0 2.711.553 3.486 1.273L76.627 9.57c-.664-.553-1.328-.885-2.379-.885-1.77 0-3.375.94-3.375 3.43v7.082h-3.32V5.81h3.044zM82.934.221v7.47c.775-1.384 2.988-2.158 4.427-2.158 3.928 0 6.86 2.379 6.86 7.026 0 4.426-2.988 7.027-6.916 7.027-1.66 0-3.32-.554-4.315-2.158l-.222 1.881H79.67V.221h3.264zm.72 12.338c0 2.434 1.825 3.928 3.873 3.928 2.102 0 3.817-1.604 3.817-3.928 0-2.434-1.715-3.928-3.817-3.928-2.048 0-3.873 1.55-3.873 3.928zM103.903 18.147c-1.106.885-2.324 1.328-3.762 1.328-1.439 0-2.6-.387-3.54-1.107-.941-.719-1.384-1.715-1.384-2.987 0-1.439.94-2.711 2.877-3.762-.443-.498-.72-.996-.94-1.384-.222-.387-.277-.83-.277-1.383 0-1.106.387-1.936 1.217-2.545.774-.608 1.715-.885 2.822-.885 1.106 0 1.991.277 2.766.83.774.553 1.162 1.328 1.162 2.379 0 1.272-.94 2.434-2.767 3.54.72.886 1.273 1.55 1.605 1.937a7.767 7.767 0 0 0 .72-1.88l2.268 1.604c-.277.83-.664 1.549-1.107 2.268l1.936 1.881-1.936 1.826-1.66-1.66zm-5.256-1.549c.387.277.885.443 1.439.443.608 0 1.217-.277 1.936-.83-.94-.996-1.77-1.881-2.434-2.711-.996.608-1.494 1.272-1.494 1.991 0 .388.221.775.553 1.107zm2.213-8.908c-.276 0-.553.111-.774.277a1.126 1.126 0 0 0-.332.83c0 .332.276.83.774 1.494.996-.498 1.439-.996 1.439-1.439 0-.387-.11-.664-.332-.83a1.092 1.092 0 0 0-.775-.332zM112.092.221v7.47c.774-1.384 2.987-2.158 4.426-2.158 3.928 0 6.86 2.379 6.86 7.026 0 4.426-2.988 7.027-6.916 7.027-1.66 0-3.32-.554-4.315-2.158l-.221 1.881h-3.099V.221h3.265zm.774 12.338c0 2.434 1.826 3.928 3.873 3.928 2.102 0 3.817-1.604 3.817-3.928 0-2.434-1.715-3.928-3.817-3.928-2.102 0-3.873 1.55-3.873 3.928z"/>
    </g>
</svg>
