<svg width="158" height="24" viewBox="0 0 158 24" xmlns="http://www.w3.org/2000/svg">
    <defs>
        <linearGradient x1="50%" y1="34.067%" x2="50%" y2="100%" id="kfu0gsmhya">
            <stop stop-color="#0099B2" offset="0%"/>
            <stop stop-color="#00BAD7" offset="100%"/>
        </linearGradient>
        <linearGradient x1="50%" y1="34.067%" x2="50%" y2="100%" id="hwwcc5x7bb">
            <stop stop-color="#0099B2" offset="0%"/>
            <stop stop-color="#00BAD7" offset="100%"/>
        </linearGradient>
        <linearGradient x1="50%" y1="34.067%" x2="50%" y2="100%" id="j3tsp77oqc">
            <stop stop-color="#0099B2" offset="0%"/>
            <stop stop-color="#00BAD7" offset="100%"/>
        </linearGradient>
        <linearGradient x1="50%" y1="34.067%" x2="50%" y2="100%" id="6s7nbu9gjd">
            <stop stop-color="#0099B2" offset="0%"/>
            <stop stop-color="#00BAD7" offset="100%"/>
        </linearGradient>
        <linearGradient x1="50%" y1="34.067%" x2="50%" y2="100%" id="xelgxu71fe">
            <stop stop-color="#0099B2" offset="0%"/>
            <stop stop-color="#00BAD7" offset="100%"/>
        </linearGradient>
        <linearGradient x1="50%" y1="34.067%" x2="50%" y2="100%" id="d0mlpgyk3f">
            <stop stop-color="#0099B2" offset="0%"/>
            <stop stop-color="#00BAD7" offset="100%"/>
        </linearGradient>
        <linearGradient x1="50%" y1="34.067%" x2="50%" y2="100%" id="ubkt9r0ymg">
            <stop stop-color="#0099B2" offset="0%"/>
            <stop stop-color="#00BAD7" offset="100%"/>
        </linearGradient>
        <linearGradient x1="50%" y1="0%" x2="50%" y2="100%" id="k654fceuih">
            <stop stop-color="#0099B2" offset="0%"/>
            <stop stop-color="#00BAD7" offset="100%"/>
        </linearGradient>
        <linearGradient x1="50%" y1="0%" x2="50%" y2="100%" id="wisnc2fp4i">
            <stop stop-color="#0099B2" offset="0%"/>
            <stop stop-color="#00BAD7" offset="100%"/>
        </linearGradient>
        <linearGradient x1="50%" y1="0%" x2="50%" y2="100%" id="ja00te1syj">
            <stop stop-color="#8D2FF0" offset="0%"/>
            <stop stop-color="#DB5EF7" offset="100%"/>
        </linearGradient>
    </defs>
    <g fill-rule="nonzero" fill="none">
        <path d="M117.827 16.393c.971 0 1.816-.279 2.536-.836.719-.557 1.178-1.322 1.376-2.294.072-.301.107-.628.107-.982 0-1.45-.88-2.175-2.642-2.175-.72 0-1.412.181-2.078.544a4.003 4.003 0 0 0-1.55 1.457c-.378.618-.644 1.65-.5 2.27.144.619.458 1.11.944 1.472.485.362 1.088.544 1.807.544zm-.35 3.607c-1.835 0-3.237-.557-4.208-1.671l-.27 1.234h-4.586L112.648 0h4.748l-1.726 7.904a7.354 7.354 0 0 1 2.185-1.071 8.773 8.773 0 0 1 2.562-.385c1.744 0 3.111.455 4.1 1.366.989.91 1.483 2.168 1.483 3.724a7.87 7.87 0 0 1-.189 1.725c-.449 2.086-1.388 3.73-2.818 4.933-1.43 1.203-3.268 1.804-5.516 1.804z" fill="url(#kfu0gsmhya)" transform="translate(32)"/>
        <path d="M103.864 10.665c-.203.214-.552.455-1.047.724a3.61 3.61 0 0 1-.495-.596.95.95 0 0 1-.153-.504c0-.073.007-.128.02-.164.063-.294.202-.52.418-.678a1.25 1.25 0 0 1 .762-.238c.241 0 .435.058.58.174.147.116.22.284.22.503 0 .306-.102.565-.305.779zm-2.35 6.828c-.393 0-.696-.075-.91-.224-.216-.15-.323-.374-.323-.673 0-.062.012-.168.038-.318.063-.311.205-.582.426-.813.222-.23.54-.426.958-.588l1.688 2.037c-.506.386-1.131.579-1.877.579zm5.46-4.147c-.2.914-.358 1.098-.61 1.481l-1.568-1.817c.794-.47 1.392-.943 1.795-1.418.403-.476.68-1.067.831-1.771.05-.198.076-.42.076-.668 0-.79-.309-1.433-.926-1.928-.617-.494-1.48-.741-2.588-.741-1.335 0-2.45.309-3.344.927-.894.618-1.448 1.421-1.662 2.41a4.604 4.604 0 0 0-.094.816c0 .37.063.717.189 1.038.125.321.314.649.566.983-.894.494-1.58 1.023-2.059 1.585-.478.562-.806 1.245-.982 2.049a3.973 3.973 0 0 0-.094.76c0 .927.384 1.65 1.152 2.17.768.518 1.794.778 3.079.778.982 0 1.832-.083 2.55-.25a5.063 5.063 0 0 0 1.78-.788l.507.602h1.931l1.356-6.218h-1.884z" fill="url(#hwwcc5x7bb)" transform="translate(32)"/>
        <path d="M88.553 16.393c.971 0 1.816-.279 2.536-.836.719-.557 1.178-1.322 1.375-2.294.072-.301.108-.628.108-.982 0-1.45-.88-2.175-2.643-2.175-.72 0-1.412.181-2.077.544a4.003 4.003 0 0 0-1.551 1.457c-.378.618-.643 1.65-.499 2.27.144.619.459 1.11.944 1.472.486.362 1.088.544 1.807.544zM88.203 20c-1.835 0-3.237-.557-4.208-1.671l-.27 1.234H79.14L83.374 0h4.748l-1.727 7.904a7.359 7.359 0 0 1 2.185-1.071 8.783 8.783 0 0 1 2.563-.385c1.744 0 3.11.455 4.1 1.366.989.91 1.483 2.168 1.483 3.724 0 .584-.063 1.159-.189 1.725-.45 2.086-1.389 3.73-2.818 4.933C92.289 19.4 90.45 20 88.203 20z" fill="url(#kfu0gsmhya)" transform="translate(32)"/>
        <path d="M71.189 6.904h4.557l-.348 1.574c.625-.565 1.425-1.002 2.4-1.311a10.276 10.276 0 0 1 3.122-.464l-.777 3.575c-1.18 0-2.26.168-3.244.503-.983.336-1.707.839-2.172 1.51l-1.554 7.27h-4.719L71.19 6.903" fill="url(#j3tsp77oqc)" transform="translate(32)"/>
        <path d="M64.413 11.89a2.66 2.66 0 0 0 .027-.424c0-.583-.188-1.025-.564-1.325-.376-.3-1.01-.45-1.905-.45-.86 0-1.584.198-2.174.596-.59.397-.994.932-1.208 1.603h5.824zM60.468 20c-2.076 0-3.731-.455-4.966-1.365-1.234-.91-1.852-2.186-1.852-3.83 0-.477.054-.98.161-1.51.465-2.138 1.445-3.808 2.94-5.01 1.493-1.2 3.493-1.801 5.998-1.801 1.235 0 2.308.23 3.22.689.913.459 1.611 1.086 2.094 1.881.483.795.725 1.688.725 2.677 0 .424-.054.875-.161 1.352l-.376 1.722h-10.28c.054 1.343 1.333 2.015 3.839 2.015.84 0 1.717-.071 2.63-.212a13.413 13.413 0 0 0 2.416-.583l-.645 3.074c-.715.265-1.592.481-2.63.65a19.473 19.473 0 0 1-3.113.251z" fill="url(#6s7nbu9gjd)" transform="translate(32)"/>
        <path d="M48.828 20c-1.312 0-2.295-.3-2.951-.9-.656-.6-.984-1.448-.984-2.543 0-.441.054-.927.162-1.457l1.078-4.978H44.3l.701-3.216h1.833l.808-3.83h4.743l-.809 3.83h2.965l-.701 3.216h-2.964l-.943 4.343a3.422 3.422 0 0 0-.108.847c0 .371.108.645.323.821.216.177.575.265 1.078.265.647 0 1.294-.159 1.94-.477l-.754 3.47a7.327 7.327 0 0 1-1.59.463c-.557.097-1.222.146-1.994.146" fill="url(#xelgxu71fe)" transform="translate(32)"/>
        <path d="M35.717 20c-1.038 0-2.098-.102-3.18-.305-1.084-.203-1.911-.49-2.484-.861l.725-3.419c.644.424 1.45.773 2.416 1.047.966.274 1.879.41 2.738.41.626 0 1.092-.044 1.396-.132.304-.088.492-.265.564-.53a.515.515 0 0 0-.188-.517c-.161-.132-.47-.274-.926-.424-.457-.15-.99-.313-1.598-.49-1.288-.406-2.214-.84-2.778-1.299-.564-.459-.846-1.086-.846-1.881 0-.336.036-.672.108-1.008.59-2.738 2.944-4.107 7.06-4.107.93 0 1.888.097 2.872.291.985.194 1.7.45 2.148.769l-.725 3.366c-.465-.354-1.114-.645-1.946-.875a9.02 9.02 0 0 0-2.403-.345c-.608 0-1.092.058-1.45.173-.357.115-.572.313-.644.596-.053.265.076.468.39.61.313.14.881.318 1.704.53.09.017.193.044.309.079l.362.106c1.325.371 2.255.795 2.792 1.272.537.477.806 1.096.806 1.855 0 .266-.045.636-.135 1.114-.268 1.236-.98 2.208-2.134 2.915-1.154.707-2.805 1.06-4.953 1.06" fill="url(#d0mlpgyk3f)" transform="translate(32)"/>
        <path d="M26.783 6.912h4.73L28.77 19.56h-4.729l2.741-12.648zm2.825-1.164c-.61 0-1.102-.172-1.478-.516-.376-.344-.565-.798-.565-1.363 0-.529.144-1.023.43-1.481a3.22 3.22 0 0 1 1.142-1.099c.475-.273.981-.41 1.518-.41.61 0 1.107.18 1.492.543.385.361.577.824.577 1.389 0 .088-.018.256-.053.503-.162.688-.538 1.266-1.129 1.733-.59.468-1.236.701-1.934.701z" fill="url(#ubkt9r0ymg)" transform="translate(32)"/>
        <path d="M18.533 6.49c-1.72.072-3.19.577-4.583 1.58-1.057-1.012-2.617-1.58-4.381-1.58-1.875 0-3.621.64-5.192 1.9-1.568 1.26-2.565 2.887-2.963 4.718L0 19.56h4.46l1.356-6.186c.15-.69.522-1.265 1.137-1.756.613-.49 1.251-.728 1.95-.728.637 0 1.096.203 1.446.64.35.435.455.952.318 1.58L9.28 19.56h4.457l1.336-6.1.02-.086c.217-.999.681-1.39 1.055-1.706l.075-.063c.308-.264 1.085-.666 1.696-.715 1.063.005 1.472.36 1.687.628.35.436.453.956.315 1.592l-1.388 6.45h4.457l1.357-6.186c.34-1.562.521-3.418-.702-4.892-1.075-1.295-3.08-2.077-5.112-1.992" fill="url(#k654fceuih)" transform="translate(32)"/>
        <g>
            <path d="M27.203 10.5h-3.8l.584-2.923c.218-1.04-.02-1.925-.59-2.653-.57-.729-1.308-1.093-2.34-1.093-.843 0-1.925.304-2.876 1.093-.828.633-1.379 1.518-1.654 2.653l-.634 2.923h-3.8l.584-2.923c.214-1.022-.013-1.916-.59-2.653-.577-.738-1.327-1.093-2.341-1.093-1.032 0-1.99.364-2.875 1.093-.885.728-1.436 1.612-1.654 2.653L4.604 10.5h-3.8l.612-2.923C1.86 5.458 2.968 3.666 4.74 2.199 6.51.733 8.447 0 10.55 0c2.083 0 3.708.757 4.873 2.27C17.222.757 19.776 0 21.859 0c2.102 0 3.731.733 4.888 2.2 1.156 1.466 1.512 3.258 1.068 5.377l-.612 2.923z" fill="url(#wisnc2fp4i)" transform="translate(0 3)"/>
            <path d="M26.401 21h-3.8l.584-2.923c.218-1.04-.034-1.925-.604-2.653-.57-.729-1.308-1.093-2.34-1.093-.843 0-1.925.304-2.876 1.093-.828.633-1.344 1.518-1.62 2.653L15.112 21H11.31l.584-2.923c.214-1.022-.047-1.916-.625-2.653-.577-.738-1.327-1.093-2.34-1.093-1.033 0-1.992.364-2.876 1.093-.885.728-1.422 1.612-1.64 2.653L3.8 21H0l.613-2.923c.444-2.119 1.537-3.911 3.309-5.378C5.693 11.233 7.63 10.5 9.732 10.5c2.084 0 3.708.757 4.874 2.27 1.8-1.513 4.354-2.27 6.438-2.27 2.102 0 3.73.733 4.888 2.2 1.156 1.466 1.526 3.258 1.082 5.377L26.4 21z" fill="url(#ja00te1syj)" transform="rotate(180 13.598 17.25)"/>
        </g>
    </g>
</svg>
